<svg width="60" height="60" viewBox="0 0 60 60" fill="none" xmlns="http://www.w3.org/2000/svg">
<rect width="60" height="60" rx="30" fill="#48C95F"/>
<path d="M41.8902 18.0937C38.9268 15.1406 34.9756 13.5 30.8049 13.5C22.1341 13.5 15.1098 20.5 15.1098 29.1406C15.1098 31.875 15.878 34.6094 17.1951 36.9062L15 45L23.3415 42.8125C25.6463 44.0156 28.1707 44.6719 30.8049 44.6719C39.4756 44.6719 46.5 37.6719 46.5 29.0313C46.3902 24.9844 44.8537 21.0469 41.8902 18.0937ZM38.378 34.7187C38.0488 35.5937 36.5122 36.4687 35.7439 36.5781C35.0854 36.6875 34.2073 36.6875 33.3293 36.4688C32.7805 36.25 32.0122 36.0313 31.1341 35.5938C27.1829 33.9531 24.6585 30.0156 24.439 29.6875C24.2195 29.4687 22.7927 27.6094 22.7927 25.6406C22.7927 23.6719 23.7805 22.7969 24.1098 22.3594C24.439 21.9219 24.878 21.9219 25.2073 21.9219C25.4268 21.9219 25.7561 21.9219 25.9756 21.9219C26.1951 21.9219 26.5244 21.8125 26.8537 22.5781C27.1829 23.3437 27.9512 25.3125 28.061 25.4219C28.1707 25.6406 28.1707 25.8594 28.061 26.0781C27.9512 26.2969 27.8415 26.5156 27.6219 26.7344C27.4024 26.9531 27.1829 27.2812 27.0732 27.3906C26.8537 27.6094 26.6341 27.8281 26.8537 28.1562C27.0732 28.5937 27.8415 29.7969 29.0488 30.8906C30.5854 32.2031 31.7927 32.6406 32.2317 32.8594C32.6707 33.0781 32.8902 32.9687 33.1098 32.75C33.3293 32.5312 34.0976 31.6563 34.3171 31.2188C34.5366 30.7813 34.8659 30.8906 35.1951 31C35.5244 31.1094 37.5 32.0938 37.8293 32.3125C38.2683 32.5313 38.4878 32.6406 38.5976 32.75C38.7073 33.0781 38.7073 33.8437 38.378 34.7187Z" fill="white"/>
</svg>
